<svg width="20" height="20" viewBox="0 0 20 20" fill="none" xmlns="http://www.w3.org/2000/svg">
<g id="Alarm">
<path id="Vector" d="M4.8172 2.31705L2.3172 4.81705C2.25913 4.87512 2.19019 4.92118 2.11432 4.95261C2.03845 4.98403 1.95713 5.00021 1.87501 5.00021C1.79289 5.00021 1.71157 4.98403 1.6357 4.95261C1.55983 4.92118 1.49089 4.87512 1.43282 4.81705C1.31555 4.69977 1.24966 4.54071 1.24966 4.37486C1.24966 4.20901 1.31555 4.04995 1.43282 3.93267L3.93282 1.43267C3.99089 1.3746 4.05983 1.32854 4.1357 1.29711C4.21157 1.26569 4.29289 1.24951 4.37501 1.24951C4.45713 1.24951 4.53845 1.26569 4.61432 1.29711C4.69019 1.32854 4.75913 1.3746 4.8172 1.43267C4.87527 1.49074 4.92133 1.55968 4.95276 1.63555C4.98418 1.71142 5.00036 1.79274 5.00036 1.87486C5.00036 1.95698 4.98418 2.0383 4.95276 2.11417C4.92133 2.19004 4.87527 2.25898 4.8172 2.31705ZM18.5672 3.93267L16.0672 1.43267C15.9499 1.3154 15.7909 1.24951 15.625 1.24951C15.4592 1.24951 15.3001 1.3154 15.1828 1.43267C15.0655 1.54995 14.9997 1.70901 14.9997 1.87486C14.9997 2.04071 15.0655 2.19977 15.1828 2.31705L17.6828 4.81705C17.7409 4.87512 17.8098 4.92118 17.8857 4.95261C17.9616 4.98403 18.0429 5.00021 18.125 5.00021C18.2071 5.00021 18.2885 4.98403 18.3643 4.95261C18.4402 4.92118 18.5091 4.87512 18.5672 4.81705C18.6253 4.75898 18.6713 4.69004 18.7028 4.61417C18.7342 4.5383 18.7504 4.45698 18.7504 4.37486C18.7504 4.29274 18.7342 4.21142 18.7028 4.13555C18.6713 4.05968 18.6253 3.99074 18.5672 3.93267ZM17.5 9.99986C17.5 11.4832 17.0601 12.9333 16.236 14.1666C15.4119 15.4 14.2406 16.3613 12.8701 16.929C11.4997 17.4966 9.99169 17.6451 8.53683 17.3557C7.08198 17.0664 5.7456 16.3521 4.69671 15.3032C3.64782 14.2543 2.93351 12.9179 2.64412 11.463C2.35473 10.0082 2.50326 8.50018 3.07092 7.12973C3.63857 5.75929 4.59987 4.58795 5.83324 3.76384C7.0666 2.93973 8.51665 2.49986 10 2.49986C11.9884 2.50213 13.8948 3.29304 15.3008 4.69907C16.7068 6.1051 17.4977 8.01143 17.5 9.99986ZM15 9.99986C15 9.8341 14.9342 9.67513 14.817 9.55792C14.6997 9.44071 14.5408 9.37486 14.375 9.37486H10.625V5.62486C10.625 5.4591 10.5592 5.30013 10.442 5.18292C10.3247 5.06571 10.1658 4.99986 10 4.99986C9.83425 4.99986 9.67528 5.06571 9.55807 5.18292C9.44086 5.30013 9.37501 5.4591 9.37501 5.62486V9.99986C9.37501 10.1656 9.44086 10.3246 9.55807 10.4418C9.67528 10.559 9.83425 10.6249 10 10.6249H14.375C14.5408 10.6249 14.6997 10.559 14.817 10.4418C14.9342 10.3246 15 10.1656 15 9.99986Z" fill="#F18701"/>
</g>
</svg>
