<svg width="20" height="20" viewBox="0 0 20 20" fill="none" xmlns="http://www.w3.org/2000/svg">
<g id="Alarm">
<path id="Vector" d="M10 2.5C8.51665 2.5 7.0666 2.93986 5.83324 3.76397C4.59987 4.58808 3.63857 5.75943 3.07092 7.12987C2.50326 8.50032 2.35473 10.0083 2.64412 11.4632C2.93351 12.918 3.64782 14.2544 4.69671 15.3033C5.7456 16.3522 7.08198 17.0665 8.53683 17.3559C9.99169 17.6453 11.4997 17.4967 12.8701 16.9291C14.2406 16.3614 15.4119 15.4001 16.236 14.1668C17.0601 12.9334 17.5 11.4834 17.5 10C17.4977 8.01157 16.7068 6.10524 15.3008 4.69921C13.8948 3.29318 11.9884 2.50227 10 2.5ZM10 16.25C8.76388 16.25 7.55551 15.8834 6.5277 15.1967C5.49989 14.5099 4.69881 13.5338 4.22576 12.3918C3.75272 11.2497 3.62895 9.99306 3.8701 8.78068C4.11126 7.5683 4.70652 6.45466 5.58059 5.58058C6.45467 4.7065 7.56832 4.11125 8.7807 3.87009C9.99308 3.62893 11.2497 3.7527 12.3918 4.22575C13.5338 4.6988 14.5099 5.49988 15.1967 6.52768C15.8835 7.55549 16.25 8.76386 16.25 10C16.2482 11.657 15.5891 13.2457 14.4174 14.4174C13.2457 15.5891 11.657 16.2481 10 16.25ZM4.8172 2.31718L2.3172 4.81718C2.25913 4.87525 2.19019 4.92132 2.11432 4.95274C2.03845 4.98417 1.95713 5.00034 1.87501 5.00034C1.79289 5.00034 1.71157 4.98417 1.6357 4.95274C1.55983 4.92132 1.49089 4.87525 1.43282 4.81718C1.31555 4.69991 1.24966 4.54085 1.24966 4.375C1.24966 4.20914 1.31555 4.05008 1.43282 3.93281L3.93282 1.43281C3.99089 1.37474 4.05983 1.32868 4.1357 1.29725C4.21157 1.26582 4.29289 1.24965 4.37501 1.24965C4.45713 1.24965 4.53845 1.26582 4.61432 1.29725C4.69019 1.32868 4.75913 1.37474 4.8172 1.43281C4.87527 1.49088 4.92133 1.55982 4.95276 1.63569C4.98418 1.71156 5.00036 1.79287 5.00036 1.875C5.00036 1.95712 4.98418 2.03844 4.95276 2.11431C4.92133 2.19018 4.87527 2.25912 4.8172 2.31718ZM18.5672 4.81718C18.5092 4.87529 18.4402 4.92139 18.3643 4.95285C18.2885 4.9843 18.2071 5.00049 18.125 5.00049C18.0429 5.00049 17.9615 4.9843 17.8857 4.95285C17.8098 4.92139 17.7409 4.87529 17.6828 4.81718L15.1828 2.31718C15.0655 2.19991 14.9997 2.04085 14.9997 1.875C14.9997 1.70914 15.0655 1.55008 15.1828 1.43281C15.3001 1.31553 15.4592 1.24965 15.625 1.24965C15.7909 1.24965 15.9499 1.31553 16.0672 1.43281L18.5672 3.93281C18.6253 3.99085 18.6714 4.05979 18.7029 4.13566C18.7343 4.21153 18.7505 4.29286 18.7505 4.375C18.7505 4.45713 18.7343 4.53846 18.7029 4.61433C18.6714 4.69021 18.6253 4.75914 18.5672 4.81718ZM14.375 9.375C14.5408 9.375 14.6997 9.44084 14.817 9.55805C14.9342 9.67527 15 9.83424 15 10C15 10.1658 14.9342 10.3247 14.817 10.4419C14.6997 10.5591 14.5408 10.625 14.375 10.625H10C9.83425 10.625 9.67528 10.5591 9.55807 10.4419C9.44086 10.3247 9.37501 10.1658 9.37501 10V5.625C9.37501 5.45924 9.44086 5.30027 9.55807 5.18305C9.67528 5.06584 9.83425 5 10 5C10.1658 5 10.3247 5.06584 10.442 5.18305C10.5592 5.30027 10.625 5.45924 10.625 5.625V9.375H14.375Z" fill="#909090"/>
</g>
</svg>
