<svg width="16" height="16" viewBox="0 0 16 16" fill="none" xmlns="http://www.w3.org/2000/svg">
<g id="vuesax/bold/diagram">
<g id="diagram">
<path id="Vector" d="M14.6667 15.1667H3.33337C1.95337 15.1667 0.833374 14.0467 0.833374 12.6667V1.33333C0.833374 1.06 1.06004 0.833332 1.33337 0.833332C1.60671 0.833332 1.83337 1.06 1.83337 1.33333V12.6667C1.83337 13.4933 2.50671 14.1667 3.33337 14.1667H14.6667C14.94 14.1667 15.1667 14.3933 15.1667 14.6667C15.1667 14.94 14.94 15.1667 14.6667 15.1667Z" fill="#00AF54"/>
<path id="Vector_2" d="M3.33338 11.8333C3.22004 11.8333 3.10004 11.7933 3.00671 11.7133C2.80004 11.5333 2.77338 11.22 2.95338 11.0067L6.01338 7.43333C6.34671 7.04667 6.82671 6.81333 7.33338 6.79333C7.84004 6.78 8.34004 6.96667 8.70004 7.32667L9.33338 7.96C9.50004 8.12667 9.71338 8.20667 9.95338 8.20667C10.1867 8.2 10.4 8.09333 10.5534 7.91333L13.6134 4.34C13.7934 4.13333 14.1067 4.10667 14.32 4.28667C14.5267 4.46667 14.5534 4.78 14.3734 4.99333L11.3134 8.56667C10.98 8.95333 10.5 9.18667 9.99338 9.20667C9.48004 9.22 8.98671 9.03333 8.62671 8.67333L8.00004 8.04C7.83338 7.87333 7.61338 7.78667 7.38004 7.79333C7.14671 7.8 6.93338 7.90667 6.78004 8.08667L3.72004 11.66C3.61338 11.7733 3.47338 11.8333 3.33338 11.8333Z" fill="#00AF54"/>
</g>
</g>
</svg>
