<svg width="20" height="20" viewBox="0 0 20 20" fill="none" xmlns="http://www.w3.org/2000/svg">
<g id="vuesax/outline/element-3">
<g id="element-3">
<path id="Vector" d="M16.475 9.37508H13.1083C11.4333 9.37508 10.625 8.63341 10.625 7.10008V3.31675C10.625 1.78341 11.4417 1.04175 13.1083 1.04175H16.475C18.15 1.04175 18.9583 1.78341 18.9583 3.31675V7.09175C18.9583 8.63341 18.1417 9.37508 16.475 9.37508ZM13.1083 2.29175C11.9917 2.29175 11.875 2.60841 11.875 3.31675V7.09175C11.875 7.80841 11.9917 8.11675 13.1083 8.11675H16.475C17.5917 8.11675 17.7083 7.80008 17.7083 7.09175V3.31675C17.7083 2.60008 17.5917 2.29175 16.475 2.29175H13.1083Z" fill="#909090"/>
<path id="Vector_2" d="M16.475 18.9583H13.1083C11.4333 18.9583 10.625 18.1417 10.625 16.475V13.1083C10.625 11.4333 11.4417 10.625 13.1083 10.625H16.475C18.15 10.625 18.9583 11.4417 18.9583 13.1083V16.475C18.9583 18.1417 18.1417 18.9583 16.475 18.9583ZM13.1083 11.875C12.125 11.875 11.875 12.125 11.875 13.1083V16.475C11.875 17.4583 12.125 17.7083 13.1083 17.7083H16.475C17.4583 17.7083 17.7083 17.4583 17.7083 16.475V13.1083C17.7083 12.125 17.4583 11.875 16.475 11.875H13.1083Z" fill="#909090"/>
<path id="Vector_3" d="M6.89166 9.37508H3.52499C1.84999 9.37508 1.04166 8.63341 1.04166 7.10008V3.31675C1.04166 1.78341 1.85832 1.04175 3.52499 1.04175H6.89166C8.56666 1.04175 9.37499 1.78341 9.37499 3.31675V7.09175C9.37499 8.63341 8.55832 9.37508 6.89166 9.37508ZM3.52499 2.29175C2.40832 2.29175 2.29166 2.60841 2.29166 3.31675V7.09175C2.29166 7.80841 2.40832 8.11675 3.52499 8.11675H6.89166C8.00832 8.11675 8.12499 7.80008 8.12499 7.09175V3.31675C8.12499 2.60008 8.00832 2.29175 6.89166 2.29175H3.52499Z" fill="#909090"/>
<path id="Vector_4" d="M6.89166 18.9583H3.52499C1.84999 18.9583 1.04166 18.1417 1.04166 16.475V13.1083C1.04166 11.4333 1.85832 10.625 3.52499 10.625H6.89166C8.56666 10.625 9.37499 11.4417 9.37499 13.1083V16.475C9.37499 18.1417 8.55832 18.9583 6.89166 18.9583ZM3.52499 11.875C2.54166 11.875 2.29166 12.125 2.29166 13.1083V16.475C2.29166 17.4583 2.54166 17.7083 3.52499 17.7083H6.89166C7.87499 17.7083 8.12499 17.4583 8.12499 16.475V13.1083C8.12499 12.125 7.87499 11.875 6.89166 11.875H3.52499Z" fill="#909090"/>
</g>
</g>
</svg>
