<svg width="34" height="34" viewBox="0 0 34 34" fill="none" xmlns="http://www.w3.org/2000/svg">
<g id="Frame 350">
<rect width="34" height="34" rx="4" fill="#F18701"/>
<path id="Vector" d="M25.4615 9H8.53846C8.13044 9 7.73912 9.16282 7.4506 9.45265C7.16209 9.74248 7 10.1356 7 10.5455V24.4545C7 24.8644 7.16209 25.2575 7.4506 25.5473C7.73912 25.8372 8.13044 26 8.53846 26H25.4615C25.8696 26 26.2609 25.8372 26.5494 25.5473C26.8379 25.2575 27 24.8644 27 24.4545V10.5455C27 10.1356 26.8379 9.74248 26.5494 9.45265C26.2609 9.16282 25.8696 9 25.4615 9ZM13.6154 19.2C13.7786 19.323 13.8865 19.506 13.9153 19.7089C13.9442 19.9118 13.8916 20.1179 13.7692 20.2818C13.6468 20.4458 13.4646 20.5542 13.2626 20.5831C13.0607 20.6121 12.8555 20.5593 12.6923 20.4364L9.61538 18.1182C9.51985 18.0462 9.44231 17.9529 9.3889 17.8456C9.3355 17.7383 9.30769 17.62 9.30769 17.5C9.30769 17.38 9.3355 17.2617 9.3889 17.1544C9.44231 17.0471 9.51985 16.9538 9.61538 16.8818L12.6923 14.5636C12.8555 14.4407 13.0607 14.3879 13.2626 14.4169C13.4646 14.4458 13.6468 14.5542 13.7692 14.7182C13.8916 14.8821 13.9442 15.0882 13.9153 15.2911C13.8865 15.494 13.7786 15.677 13.6154 15.8L11.3587 17.5L13.6154 19.2ZM19.2779 12.3034L16.201 23.1216C16.1747 23.2209 16.1291 23.3139 16.0666 23.3953C16.0042 23.4766 15.9262 23.5447 15.8373 23.5954C15.7483 23.6461 15.6502 23.6785 15.5487 23.6907C15.4471 23.7029 15.3442 23.6946 15.2459 23.6664C15.1475 23.6381 15.0558 23.5904 14.9761 23.5262C14.8963 23.4619 14.8301 23.3822 14.7813 23.2919C14.7325 23.2016 14.7022 23.1025 14.692 23.0003C14.6819 22.898 14.6921 22.7948 14.7221 22.6966L17.799 11.8784C17.8582 11.685 17.9905 11.5226 18.1675 11.4261C18.3446 11.3296 18.5523 11.3067 18.746 11.3623C18.9396 11.418 19.1038 11.5478 19.2033 11.7237C19.3028 11.8997 19.3295 12.1078 19.2779 12.3034ZM24.3846 18.1182L21.3077 20.4364C21.1445 20.5593 20.9393 20.6121 20.7374 20.5831C20.5354 20.5542 20.3532 20.4458 20.2308 20.2818C20.1084 20.1179 20.0558 19.9118 20.0847 19.7089C20.1135 19.506 20.2214 19.323 20.3846 19.2L22.6413 17.5L20.3846 15.8C20.3038 15.7391 20.2357 15.6628 20.1843 15.5755C20.1328 15.4882 20.0989 15.3916 20.0847 15.2911C20.0704 15.1906 20.0759 15.0883 20.101 14.99C20.1261 14.8917 20.1702 14.7994 20.2308 14.7182C20.2914 14.637 20.3673 14.5686 20.4542 14.5169C20.5412 14.4652 20.6374 14.4312 20.7374 14.4169C20.8374 14.4025 20.9392 14.4081 21.0371 14.4333C21.1349 14.4585 21.2269 14.5028 21.3077 14.5636L24.3846 16.8818C24.4802 16.9538 24.5577 17.0471 24.6111 17.1544C24.6645 17.2617 24.6923 17.38 24.6923 17.5C24.6923 17.62 24.6645 17.7383 24.6111 17.8456C24.5577 17.9529 24.4802 18.0462 24.3846 18.1182Z" fill="white"/>
</g>
</svg>
